<?xml version="1.0" encoding="UTF-8" standalone="no"?>
<!-- Created with Inkscape (http://www.inkscape.org/) -->

<svg
   xmlns:dc="http://purl.org/dc/elements/1.1/"
   xmlns:cc="http://creativecommons.org/ns#"
   xmlns:rdf="http://www.w3.org/1999/02/22-rdf-syntax-ns#"
   xmlns:svg="http://www.w3.org/2000/svg"
   xmlns="http://www.w3.org/2000/svg"
   xmlns:sodipodi="http://sodipodi.sourceforge.net/DTD/sodipodi-0.dtd"
   xmlns:inkscape="http://www.inkscape.org/namespaces/inkscape"
   width="200"
   height="200"
   viewBox="0 0 52.916665 52.916668"
   version="1.1"
   id="svg8"
   inkscape:version="0.92.3 (2405546, 2018-03-11)"
   sodipodi:docname="antenne.svg">
  <defs
     id="defs2" />
  <sodipodi:namedview
     id="base"
     pagecolor="#ffffff"
     bordercolor="#666666"
     borderopacity="1.0"
     inkscape:pageopacity="0.0"
     inkscape:pageshadow="2"
     inkscape:zoom="5.6"
     inkscape:cx="154.39311"
     inkscape:cy="97.95506"
     inkscape:document-units="mm"
     inkscape:current-layer="layer1"
     showgrid="false"
     units="px"
     inkscape:window-width="3066"
     inkscape:window-height="1689"
     inkscape:window-x="134"
     inkscape:window-y="55"
     inkscape:window-maximized="1" />
  <metadata
     id="metadata5">
    <rdf:RDF>
      <cc:Work
         rdf:about="">
        <dc:format>image/svg+xml</dc:format>
        <dc:type
           rdf:resource="http://purl.org/dc/dcmitype/StillImage" />
        <dc:title></dc:title>
      </cc:Work>
    </rdf:RDF>
  </metadata>
  <g
     inkscape:label="Layer 1"
     inkscape:groupmode="layer"
     id="layer1"
     transform="translate(0,-244.08332)">
    <path
       style="fill:#a7ac93;stroke:#a7ac93;stroke-width:0.26458332px;stroke-linecap:butt;stroke-linejoin:miter;stroke-opacity:1"
       d="m 18.331845,288.44827 -3.212798,6.94532 3.827009,-4.29948 0.377976,4.63021 1.228423,-3.44904 3.590774,3.44904 -2.976563,-6.37835 z"
       id="path14"
       inkscape:connector-curvature="0" />
    <path
       style="fill:#5d6c53;stroke:#5d6c53;stroke-width:0.26458332px;stroke-linecap:butt;stroke-linejoin:miter;stroke-opacity:1"
       d="m 6.7563242,254.85564 c 0,0 -1.038167,0.33081 -1.4858325,4.17179 -0.1144548,0.98203 -0.322786,6.30025 -0.3095543,7.073 0.09862,5.75953 1.4263413,11.73356 4.6774554,16.39472 2.5211222,3.61456 6.4467752,6.56316 10.6778272,7.79576 5.227149,1.52279 11.163736,0.76569 16.300224,-1.03943 4.085032,-1.43561 10.63058,-7.46504 10.63058,-7.46504 z"
       id="path12"
       inkscape:connector-curvature="0"
       sodipodi:nodetypes="cssaaacc" />
    <path
       style="fill:#bec8b7;stroke:#3e4837;stroke-width:0.26458332px;stroke-linecap:butt;stroke-linejoin:miter;stroke-opacity:1"
       d="m 6.7563242,254.85564 c 4.1567228,-3.75801 11.4340308,-0.56892 16.7726938,1.13393 7.233614,2.30727 14.760503,5.91029 19.418526,11.90625 2.973542,3.82764 6.814465,9.74724 4.29948,13.89062 -2.33381,3.8449 -8.8138,2.97085 -13.276414,2.4096 -6.188039,-0.77826 -11.973358,-4.11601 -17.008929,-7.79576 -4.212609,-3.07837 -8.7341265,-6.67906 -10.5360859,-11.57552 -1.1483019,-3.12028 -2.1356153,-7.73935 0.3307291,-9.96912 z"
       id="path10"
       inkscape:connector-curvature="0"
       sodipodi:nodetypes="aaaaaaaa" />
    <path
       style="fill:#deaa87;stroke:#deaa87;stroke-width:0.26458332px;stroke-linecap:butt;stroke-linejoin:miter;stroke-opacity:1"
       d="m 47.247024,281.78644 c 0,0 2.758248,-6.63646 2.976562,-10.15811 0.285313,-4.60243 0.216842,-9.73999 -2.220611,-13.65439 -1.379017,-2.21462 -6.378347,-4.53571 -6.378347,-4.53571 0,0 -3.095304,0.77763 -4.346726,0.0472 -1.381888,-0.80658 -2.865266,-2.70249 -2.315104,-4.20499 0.46965,-1.28262 2.46111,-1.46876 3.827007,-1.46466 1.301458,0.004 2.919191,0.33248 3.638021,1.41742 0.600452,0.90627 -0.09449,3.26004 -0.09449,3.26004 0,0 4.7164,2.6943 6.189361,4.86644 1.622145,2.39214 2.04311,5.45497 2.456845,8.31548 0.288567,1.99511 0.0066,4.29457 0,6.04762 -0.01395,3.71196 -3.732515,10.06361 -3.732515,10.06361"
       id="path16"
       inkscape:connector-curvature="0"
       sodipodi:nodetypes="caacaaaacaasc" />
    <path
       style="fill:none;stroke:#8a916f;stroke-width:0.26458332px;stroke-linecap:butt;stroke-linejoin:miter;stroke-opacity:1"
       d="m 14.59933,255.5171 c 0,0 -0.904509,5.11444 -0.992187,7.70126 -0.09727,2.8699 0.08888,5.75991 0.519717,8.59896 0.138691,0.91391 0.661458,2.69309 0.661458,2.69309"
       id="path18"
       inkscape:connector-curvature="0"
       sodipodi:nodetypes="caac" />
    <path
       style="fill:none;stroke:#8a916f;stroke-width:0.26458332px;stroke-linecap:butt;stroke-linejoin:miter;stroke-opacity:1"
       d="m 24.001488,258.82439 c 0,0 -1.695932,4.09977 -2.267857,6.23661 -0.587103,2.19354 -0.907835,4.45484 -1.181176,6.70908 -0.254606,2.09974 -0.425223,6.33109 -0.425223,6.33109"
       id="path20"
       inkscape:connector-curvature="0"
       sodipodi:nodetypes="caac" />
    <path
       style="fill:none;stroke:#8a916f;stroke-width:0.26458332px;stroke-linecap:butt;stroke-linejoin:miter;stroke-opacity:1"
       d="m 37.844864,266.95088 c 0,0 -1.763445,5.01354 -3.354538,7.08705 -1.748111,2.27814 -4.236145,3.89844 -6.567336,5.57515 -0.79156,0.56933 -2.504092,1.5119 -2.504092,1.5119"
       id="path22"
       inkscape:connector-curvature="0"
       sodipodi:nodetypes="caac" />
    <path
       style="fill:none;stroke:#8a916f;stroke-width:0.26458332px;stroke-linecap:butt;stroke-linejoin:miter;stroke-opacity:1"
       d="m 44.979166,277.15624 c 0,0 -3.223996,2.89698 -4.913692,4.25222 -1.009884,0.80999 -1.944206,1.76972 -3.118301,2.31511 -0.498891,0.23174 -1.6064,0.37797 -1.6064,0.37797"
       id="path24"
       inkscape:connector-curvature="0"
       sodipodi:nodetypes="caac" />
  </g>
</svg>
