<?xml version="1.0" encoding="UTF-8" standalone="no"?>
<!-- Created with Inkscape (http://www.inkscape.org/) -->

<svg
   xmlns:dc="http://purl.org/dc/elements/1.1/"
   xmlns:cc="http://creativecommons.org/ns#"
   xmlns:rdf="http://www.w3.org/1999/02/22-rdf-syntax-ns#"
   xmlns:svg="http://www.w3.org/2000/svg"
   xmlns="http://www.w3.org/2000/svg"
   xmlns:sodipodi="http://sodipodi.sourceforge.net/DTD/sodipodi-0.dtd"
   xmlns:inkscape="http://www.inkscape.org/namespaces/inkscape"
   width="200"
   height="200"
   viewBox="0 0 200 200"
   version="1.1"
   id="svg858"
   inkscape:version="0.92.3 (2405546, 2018-03-11)"
   sodipodi:docname="bat.svg">
  <defs
     id="defs852" />
  <sodipodi:namedview
     id="base"
     pagecolor="#ffffff"
     bordercolor="#666666"
     borderopacity="1.0"
     inkscape:pageopacity="0.0"
     inkscape:pageshadow="2"
     inkscape:zoom="5.6"
     inkscape:cx="96.866151"
     inkscape:cy="102.85714"
     inkscape:document-units="px"
     inkscape:current-layer="layer1"
     showgrid="false"
     units="px"
     inkscape:window-width="3066"
     inkscape:window-height="1689"
     inkscape:window-x="134"
     inkscape:window-y="55"
     inkscape:window-maximized="1" />
  <metadata
     id="metadata855">
    <rdf:RDF>
      <cc:Work
         rdf:about="">
        <dc:format>image/svg+xml</dc:format>
        <dc:type
           rdf:resource="http://purl.org/dc/dcmitype/StillImage" />
        <dc:title></dc:title>
      </cc:Work>
    </rdf:RDF>
  </metadata>
  <g
     inkscape:label="Layer 1"
     inkscape:groupmode="layer"
     id="layer1"
     transform="translate(0,-244.08332)">
    <path
       style="fill:#333333;stroke:#333333;stroke-width:1px;stroke-linecap:butt;stroke-linejoin:miter;stroke-opacity:1"
       d="m 74.464286,283.72617 -5.535715,-16.07143 13.75,11.96429 c 0,0 5.760075,-1.86448 8.75,-2.14286 3.264557,-0.30395 9.821429,0.53572 9.821429,0.53572 l 13.03571,-11.25 -5.71428,13.39286 c 0,0 3.08717,5.8825 3.57142,9.10714 0.58509,3.89614 1.22644,8.46444 -0.89285,11.78571 -1.83487,2.87554 -8.92857,5 -8.92857,5 l -1.25,3.92857 c 0,0 7.7186,3.0136 11.78571,3.21429 7.83858,0.38679 23.21428,-3.92857 23.21428,-3.92857 l 6.78572,-4.10715 c 0,0 5.50008,3.20907 8.57143,3.75 2.76082,0.48624 5.7024,0.2517 8.39285,-0.53571 7.90137,-2.31249 21.60715,-11.96428 21.60715,-11.96428 0,0 6.68429,11.60926 8.21428,18.03571 5.50501,23.12281 2.85714,71.25 2.85714,71.25 0,0 -7.87924,-21.54841 -16.96428,-27.14286 -4.42818,-2.72682 -10.71211,-3.37208 -15.53571,-1.42857 -2.70082,1.08821 -5.71429,6.60714 -5.71429,6.60714 0,0 -6.29206,-4.65981 -10,-5.53571 -4.17454,-0.98612 -8.64237,-0.26112 -12.85714,0.53571 -5.38246,1.01759 -11.49909,1.65417 -15.53572,5.35715 -4.32004,3.96297 -6.42544,10.25308 -7.14285,16.07143 -0.46585,3.77812 1.96428,11.25 1.96428,11.25 -6.79681,-2.37501 -13.755506,-4.44651 -24.285709,0.17857 0,0 1.977607,-7.78436 1.25,-11.60715 -1.005613,-5.28341 -3.424043,-10.77682 -7.5,-14.28571 -3.438182,-2.95985 -8.328874,-4.1876 -12.857143,-4.46429 -3.950406,-0.24138 -8.246876,0.40893 -11.607142,2.5 -1.546976,0.96267 -3.392858,4.28572 -3.392858,4.28572 0,0 -2.028803,-5.05017 -4.285714,-6.07143 -4.090331,-1.85089 -8.987483,0.56296 -13.392857,1.42857 -4.62117,0.90801 -9.942955,0.92626 -13.571429,3.92857 -6.37854,5.2778 -11.2499994,22.14286 -11.2499994,22.14286 0,0 -3.8994686,-36.1828 -3.0357143,-54.28571 C 7.3883329,322.52482 12.5,297.65474 12.5,297.65474 c 0,0 3.844338,6.52695 6.964285,8.39286 4.117647,2.4626 9.380268,3.67938 14.107143,2.85714 2.604841,-0.45311 6.785715,-4.10714 6.785715,-4.10714 0,0 0.96369,2.924 2.142857,3.75 6.035283,4.22766 14.425495,3.39654 21.785714,3.75 C 68.280296,312.48943 76.25,311.40474 76.25,311.40474 L 85.892857,309.26189 86.25,306.0476 c 0,0 -5.693679,-1.707 -7.678572,-3.75 -2.914411,-2.99974 -4.602075,-7.28612 -5.178571,-11.42857 -0.331861,-2.38461 1.071429,-7.14286 1.071429,-7.14286 z"
       id="path1403"
       inkscape:connector-curvature="0"
       sodipodi:nodetypes="cccacccaaccaccaacacaacaaaaccaaaacaaacacaacaacccaac" />
  </g>
</svg>
