<?xml version="1.0" encoding="UTF-8" standalone="no"?>
<!-- Created with Inkscape (http://www.inkscape.org/) -->

<svg
   xmlns:dc="http://purl.org/dc/elements/1.1/"
   xmlns:cc="http://creativecommons.org/ns#"
   xmlns:rdf="http://www.w3.org/1999/02/22-rdf-syntax-ns#"
   xmlns:svg="http://www.w3.org/2000/svg"
   xmlns="http://www.w3.org/2000/svg"
   xmlns:sodipodi="http://sodipodi.sourceforge.net/DTD/sodipodi-0.dtd"
   xmlns:inkscape="http://www.inkscape.org/namespaces/inkscape"
   width="200"
   height="200"
   viewBox="0 0 52.916665 52.916668"
   version="1.1"
   id="svg8"
   inkscape:version="0.92.3 (2405546, 2018-03-11)"
   sodipodi:docname="escargot.svg">
  <defs
     id="defs2" />
  <sodipodi:namedview
     id="base"
     pagecolor="#ffffff"
     bordercolor="#666666"
     borderopacity="1.0"
     inkscape:pageopacity="0.0"
     inkscape:pageshadow="2"
     inkscape:zoom="5.6"
     inkscape:cx="146.43569"
     inkscape:cy="85.228303"
     inkscape:document-units="mm"
     inkscape:current-layer="layer1"
     showgrid="false"
     units="px"
     inkscape:window-width="3066"
     inkscape:window-height="1689"
     inkscape:window-x="134"
     inkscape:window-y="55"
     inkscape:window-maximized="1" />
  <metadata
     id="metadata5">
    <rdf:RDF>
      <cc:Work
         rdf:about="">
        <dc:format>image/svg+xml</dc:format>
        <dc:type
           rdf:resource="http://purl.org/dc/dcmitype/StillImage" />
        <dc:title></dc:title>
      </cc:Work>
    </rdf:RDF>
  </metadata>
  <g
     inkscape:label="Layer 1"
     inkscape:groupmode="layer"
     id="layer1"
     transform="translate(0,-244.08332)">
    <path
       style="fill:#cccccc;stroke:#cccccc;stroke-width:0.26458332px;stroke-linecap:butt;stroke-linejoin:miter;stroke-opacity:1"
       d="m 2.6930802,288.96799 c 1.0779876,1.03368 2.8590937,0.95441 4.3467263,1.08668 3.9464895,0.35088 7.9011255,-0.98514 11.8590025,-0.80319 3.664972,0.16848 7.205844,1.50794 10.866816,1.74813 4.968024,0.32594 10.041639,0.51863 14.930059,-0.42522 1.565551,-0.30227 3.677993,-0.28052 4.488468,-1.65364 0.955553,-1.61891 0.228648,-4.03583 -0.850448,-5.57515 -0.566374,-0.80793 -2.598586,-1.41742 -2.598586,-1.41742 l 1.464659,-7.74851 c 0,0 0.799141,-0.26529 0.897691,-0.61421 0.220365,-0.78021 -0.282402,-1.82883 -0.992187,-2.22061 -0.877468,-0.48433 -2.54146,-0.47766 -2.976562,0.42523 -0.364673,0.75674 1.27567,2.17336 1.27567,2.17336 l -0.992188,7.46503 h -2.315104 l 0.141743,-7.03981 c 0,0 1.240155,-1.04736 1.181174,-1.74814 -0.08034,-0.9546 -1.054648,-1.84795 -1.984375,-2.07887 -0.870015,-0.21609 -2.045975,0.11002 -2.551338,0.85045 -0.346709,0.50798 -0.188072,1.29637 0.09449,1.84263 0.303985,0.58768 1.559152,1.22843 1.559152,1.22843 l 0.425223,6.89806 c 0,0 -0.992776,1.09072 -1.559153,1.55915 -0.777559,0.6431 -1.523386,1.46344 -2.504091,1.7009 -2.020077,0.48913 -4.111339,-0.79822 -6.189361,-0.75596 -1.755069,0.0357 -3.443439,0.92766 -5.197172,0.85045 -1.461548,-0.0643 -2.792671,-0.98698 -4.252233,-1.08668 -1.66054,-0.11343 -3.297648,0.50588 -4.960937,0.56696 -3.118746,0.11452 -6.3446123,-1.20125 -9.3549106,-0.37797 -1.2303864,0.3365 -2.0089707,1.6571 -3.2127975,2.07886 -0.5974938,0.20933 -1.536547,-0.33634 -1.889881,0.18899 -0.5590161,0.83114 0.1274789,2.18882 0.8504503,2.88207 z"
       id="path10"
       inkscape:connector-curvature="0"
       sodipodi:nodetypes="aaaaaaaccaaaccccaaaaccaaaaaaaaaa" />
    <ellipse
       style="opacity:1;fill:#deaa87;fill-opacity:1;stroke:#88aa00;stroke-width:0.26458332;stroke-linejoin:round;stroke-miterlimit:4;stroke-dasharray:none;stroke-dashoffset:0;stroke-opacity:1"
       id="path12"
       cx="41.081287"
       cy="272.52603"
       rx="1.063058"
       ry="0.70870537" />
    <ellipse
       style="opacity:1;fill:#deaa87;fill-opacity:1;stroke:#88aa00;stroke-width:0.26458332;stroke-linejoin:round;stroke-miterlimit:4;stroke-dasharray:none;stroke-dashoffset:0;stroke-opacity:1"
       id="path14"
       cx="46.396576"
       cy="272.73862"
       rx="0.75595248"
       ry="1.0158089" />
    <path
       style="fill:none;stroke:#000000;stroke-width:0.26458332px;stroke-linecap:butt;stroke-linejoin:miter;stroke-opacity:1"
       d="m 42.664062,286.08592 c 0,0 0.845387,1.56338 1.559152,2.03163 0.705823,0.46304 1.629858,0.78358 2.456845,0.61421 0.561616,-0.11502 1.115198,-0.52599 1.370163,-1.03944 0.266169,-0.53602 0,-1.79539 0,-1.79539"
       id="path16"
       inkscape:connector-curvature="0"
       sodipodi:nodetypes="caaac" />
    <path
       style="fill:#ff9955;stroke:#d45500;stroke-width:0.26458332px;stroke-linecap:butt;stroke-linejoin:miter;stroke-opacity:1"
       d="m 20.31622,270.06917 c 0,0 1.799627,0.11394 1.984375,0.8032 0.258555,0.96462 -0.894383,2.04906 -1.842634,2.36236 -1.008587,0.33324 -2.313554,-0.10581 -3.071056,-0.85045 -1.03058,-1.01308 -1.890751,-2.87332 -1.228423,-4.15774 0.954142,-1.85033 3.869212,-2.463 5.905878,-2.03162 2.082252,0.44104 4.193038,2.27413 4.677456,4.34672 0.414066,1.77159 -0.682173,3.78546 -1.937129,5.10268 -1.576253,1.65446 -4.012282,2.98885 -6.283854,2.74033 -3.059417,-0.33472 -6.221884,-2.61798 -7.46503,-5.43341 -1.1008165,-2.49309 -0.555734,-5.8211 0.897694,-8.12649 1.591862,-2.52498 4.653556,-4.29105 7.606771,-4.7247 3.341404,-0.49065 7.459934,0.19178 9.780134,2.64584 2.565557,2.71357 2.652018,7.24216 2.315104,10.9613 -0.348557,3.84767 -1.194377,8.55976 -4.393973,10.72508 -3.286929,2.22443 -8.118122,1.27858 -11.90625,0.0945 -3.549059,-1.10936 -7.0940875,-3.30669 -9.118676,-6.42559 -2.3947441,-3.68913 -2.8868853,-8.56027 -2.5513392,-12.94569 0.2823954,-3.69076 1.0060891,-7.99042 3.779762,-10.44159 3.8247392,-3.38002 9.8911792,-4.21595 14.9300592,-3.40178 5.343409,0.86338 10.999456,3.8341 13.890625,8.40997 2.680233,4.24202 2.231713,10.01139 1.511906,14.9773 -0.524841,3.62085 -4.157739,10.15811 -4.157739,10.15811 l -6.378348,-0.42523"
       id="path18"
       inkscape:connector-curvature="0"
       sodipodi:nodetypes="caaaaaaaaaaaaaaaaaaaaacc" />
  </g>
</svg>
