<?xml version="1.0" encoding="UTF-8" standalone="no"?>
<!-- Created with Inkscape (http://www.inkscape.org/) -->

<svg
   xmlns:dc="http://purl.org/dc/elements/1.1/"
   xmlns:cc="http://creativecommons.org/ns#"
   xmlns:rdf="http://www.w3.org/1999/02/22-rdf-syntax-ns#"
   xmlns:svg="http://www.w3.org/2000/svg"
   xmlns="http://www.w3.org/2000/svg"
   xmlns:sodipodi="http://sodipodi.sourceforge.net/DTD/sodipodi-0.dtd"
   xmlns:inkscape="http://www.inkscape.org/namespaces/inkscape"
   width="200"
   height="200"
   viewBox="0 0 52.916665 52.916668"
   version="1.1"
   id="svg8"
   inkscape:version="0.92.3 (2405546, 2018-03-11)"
   sodipodi:docname="man.svg">
  <defs
     id="defs2" />
  <sodipodi:namedview
     id="base"
     pagecolor="#ffffff"
     bordercolor="#666666"
     borderopacity="1.0"
     inkscape:pageopacity="0.0"
     inkscape:pageshadow="2"
     inkscape:zoom="5.6"
     inkscape:cx="185.12768"
     inkscape:cy="87.556173"
     inkscape:document-units="mm"
     inkscape:current-layer="layer1"
     showgrid="false"
     units="px"
     inkscape:window-width="3066"
     inkscape:window-height="1689"
     inkscape:window-x="134"
     inkscape:window-y="55"
     inkscape:window-maximized="1" />
  <metadata
     id="metadata5">
    <rdf:RDF>
      <cc:Work
         rdf:about="">
        <dc:format>image/svg+xml</dc:format>
        <dc:type
           rdf:resource="http://purl.org/dc/dcmitype/StillImage" />
        <dc:title></dc:title>
      </cc:Work>
    </rdf:RDF>
  </metadata>
  <g
     inkscape:label="Layer 1"
     inkscape:groupmode="layer"
     id="layer1"
     transform="translate(0,-244.08332)">
    <path
       style="fill:none;stroke:#000000;stroke-width:0.26458332px;stroke-linecap:butt;stroke-linejoin:miter;stroke-opacity:1"
       d="m 26.314613,250.93014 c 0.745804,-0.0366 1.526119,-0.0153 2.22795,0.21635 0.96082,0.31705 1.95445,0.79473 2.54623,1.55049 0.912175,1.16495 1.462897,2.73922 1.193544,4.14668 -0.353907,1.8493 -1.653141,3.8043 -3.501065,4.65149 -2.332724,1.06945 -5.818721,1.25276 -7.837612,-0.25241 -1.93525,-1.44281 -2.246052,-4.41596 -1.710747,-6.63468 0.272566,-1.12973 1.268216,-2.12331 2.347305,-2.74041 1.366141,-0.78126 3.121406,-0.85821 4.734395,-0.93751 z"
       id="path10"
       inkscape:connector-curvature="0"
       sodipodi:nodetypes="aaaaaaaaa" />
    <path
       style="fill:none;stroke:#000000;stroke-width:0.26458332px;stroke-linecap:butt;stroke-linejoin:miter;stroke-opacity:1"
       d="m 24.473958,262.46241 c 3.026286,0.0697 6.499661,0.0229 8.882441,1.88988 1.336219,1.04697 2.088859,2.89055 2.220608,4.58296 0.268341,3.44704 -0.298465,7.79429 -3.023809,9.92187 -4.164082,3.25076 -11.052032,3.06141 -15.827752,0.80321 -2.514412,-1.18894 -4.526937,-3.96181 -4.960937,-6.70908 -0.487256,-3.08439 0.599364,-6.85765 2.976562,-8.88244 2.50323,-2.13214 6.445571,-1.68213 9.732887,-1.6064 z"
       id="path12"
       inkscape:connector-curvature="0"
       sodipodi:nodetypes="aaaaaaaa" />
    <path
       style="fill:none;stroke:#000000;stroke-width:0.26458332px;stroke-linecap:butt;stroke-linejoin:miter;stroke-opacity:1"
       d="m 35.52976,271.72283 5.575149,-0.0472"
       id="path14"
       inkscape:connector-curvature="0" />
    <path
       style="fill:none;stroke:#000000;stroke-width:0.26458332px;stroke-linecap:butt;stroke-linejoin:miter;stroke-opacity:1"
       d="m 41.104909,271.67563 -1.133927,-2.92936"
       id="path16"
       inkscape:connector-curvature="0" />
    <path
       style="fill:none;stroke:#000000;stroke-width:0.26458332px;stroke-linecap:butt;stroke-linejoin:miter;stroke-opacity:1"
       d="m 41.104909,271.67563 1.984375,-2.69313"
       id="path18"
       inkscape:connector-curvature="0" />
    <path
       style="fill:none;stroke:#000000;stroke-width:0.26458332px;stroke-linecap:butt;stroke-linejoin:miter;stroke-opacity:1"
       d="m 41.104909,271.67563 3.307292,-0.37803"
       id="path20"
       inkscape:connector-curvature="0" />
    <path
       style="fill:none;stroke:#000000;stroke-width:0.26458332px;stroke-linecap:butt;stroke-linejoin:miter;stroke-opacity:1"
       d="m 42.475073,273.51822 -1.370164,-1.84259 -1.842632,1.84259"
       id="path22"
       inkscape:connector-curvature="0" />
    <path
       style="fill:none;stroke:#000000;stroke-width:0.26458332px;stroke-linecap:butt;stroke-linejoin:miter;stroke-opacity:1"
       d="m 11.622768,271.06137 -6.9453128,-0.18899 1.9371281,-2.22061"
       id="path24"
       inkscape:connector-curvature="0" />
    <path
       style="fill:none;stroke:#000000;stroke-width:0.26458332px;stroke-linecap:butt;stroke-linejoin:miter;stroke-opacity:1"
       d="M 4.6774552,270.87238 2.031622,267.70683"
       id="path26"
       inkscape:connector-curvature="0" />
    <path
       style="fill:none;stroke:#000000;stroke-width:0.26458332px;stroke-linecap:butt;stroke-linejoin:miter;stroke-opacity:1"
       d="m 4.6774552,270.87238 -2.4568451,1.08668"
       id="path28"
       inkscape:connector-curvature="0" />
    <path
       style="fill:none;stroke:#000000;stroke-width:0.26458332px;stroke-linecap:butt;stroke-linejoin:miter;stroke-opacity:1"
       d="m 4.6774552,270.87238 0.2834822,2.78758"
       id="path30"
       inkscape:connector-curvature="0" />
    <path
       style="fill:none;stroke:#000000;stroke-width:0.26458332px;stroke-linecap:butt;stroke-linejoin:miter;stroke-opacity:1"
       d="m 4.6774552,270.87238 1.559152,1.37017"
       id="path32"
       inkscape:connector-curvature="0" />
    <path
       style="fill:none;stroke:#000000;stroke-width:0.26458332px;stroke-linecap:butt;stroke-linejoin:miter;stroke-opacity:1"
       d="m 20.221726,280.79426 -0.550424,5.00889 0.125201,4.96023 -5.669643,-0.0945"
       id="path34"
       inkscape:connector-curvature="0"
       sodipodi:nodetypes="cccc" />
    <path
       style="fill:none;stroke:#000000;stroke-width:0.26458332px;stroke-linecap:butt;stroke-linejoin:miter;stroke-opacity:1"
       d="m 27.497767,281.21948 0.400209,4.58239 -0.352959,5.056 6.37835,0.33073"
       id="path36"
       inkscape:connector-curvature="0"
       sodipodi:nodetypes="cccc" />
    <ellipse
       style="opacity:1;fill:none;fill-opacity:1;stroke:#000000;stroke-width:0.26458332;stroke-linejoin:round;stroke-miterlimit:4;stroke-dasharray:none;stroke-dashoffset:0;stroke-opacity:1"
       id="path38"
       cx="23.859745"
       cy="272.24255"
       rx="0.94494045"
       ry="0.8504464" />
    <ellipse
       style="opacity:1;fill:none;fill-opacity:1;stroke:#000000;stroke-width:0.26458332;stroke-linejoin:round;stroke-miterlimit:4;stroke-dasharray:none;stroke-dashoffset:0;stroke-opacity:1"
       id="path38-3"
       cx="22.867558"
       cy="255.54074"
       rx="1.2284226"
       ry="0.87406993" />
    <ellipse
       style="opacity:1;fill:none;fill-opacity:1;stroke:#000000;stroke-width:0.26458332;stroke-linejoin:round;stroke-miterlimit:4;stroke-dasharray:none;stroke-dashoffset:0;stroke-opacity:1"
       id="path38-6"
       cx="27.09617"
       cy="255.8006"
       rx="1.157552"
       ry="1.0866815" />
    <path
       style="fill:none;stroke:#000000;stroke-width:0.26458332px;stroke-linecap:butt;stroke-linejoin:miter;stroke-opacity:1"
       d="m 20.694196,256.41479 c 0,0 0.452001,2.08992 1.181176,2.78758 0.619318,0.59255 1.56013,0.78336 2.409598,0.89769 0.87754,0.11811 1.777853,-0.0612 2.645832,-0.23623 0.761655,-0.15359 1.673787,-0.15672 2.220611,-0.70871 0.788819,-0.79627 0.992187,-3.2128 0.992187,-3.2128"
       id="path61"
       inkscape:connector-curvature="0"
       sodipodi:nodetypes="caaaac" />
    <path
       style="fill:none;stroke:#000000;stroke-width:0.26458332px;stroke-linecap:butt;stroke-linejoin:miter;stroke-opacity:1"
       d="m 21.402901,251.78458 -0.803199,-1.98437"
       id="path3766"
       inkscape:connector-curvature="0" />
    <path
       style="fill:none;stroke:#000000;stroke-width:0.26458332px;stroke-linecap:butt;stroke-linejoin:miter;stroke-opacity:1"
       d="m 23.481771,251.26487 -0.33073,-2.26786"
       id="path3768"
       inkscape:connector-curvature="0" />
    <path
       style="fill:none;stroke:#000000;stroke-width:0.26458332px;stroke-linecap:butt;stroke-linejoin:miter;stroke-opacity:1"
       d="M 26.314613,250.93014 26.269345,249.186"
       id="path3770"
       inkscape:connector-curvature="0" />
    <path
       style="fill:none;stroke:#000000;stroke-width:0.26458332px;stroke-linecap:butt;stroke-linejoin:miter;stroke-opacity:1"
       d="m 28.159225,250.83964 0.661459,-1.5119"
       id="path3772"
       inkscape:connector-curvature="0" />
    <path
       style="fill:none;stroke:#000000;stroke-width:0.26458332px;stroke-linecap:butt;stroke-linejoin:miter;stroke-opacity:1"
       d="m 30.33259,251.97357 0.992187,-1.18117"
       id="path3774"
       inkscape:connector-curvature="0" />
    <path
       style="fill:none;stroke:#000000;stroke-width:0.26458332px;stroke-linecap:butt;stroke-linejoin:miter;stroke-opacity:1"
       d="m 17.670387,253.43823 c -0.983096,0.0186 -1.330488,1.54778 -1.559152,2.50409 -0.209564,0.87643 -0.292261,1.96319 0.236235,2.69308 0.422054,0.58289 1.300383,1.07416 1.984375,0.85045 0.382508,-0.1251 0.512281,-0.65011 0.614211,-1.03943 0.27729,-1.05911 -0.07087,-3.28367 -0.07087,-3.28367 0,0 -0.558438,-1.73676 -1.2048,-1.72452 z"
       id="path3776"
       inkscape:connector-curvature="0"
       sodipodi:nodetypes="aaaaaca" />
    <path
       style="fill:none;stroke:#000000;stroke-width:0.26458332px;stroke-linecap:butt;stroke-linejoin:miter;stroke-opacity:1"
       d="m 32.647692,254.85564 c 0.211397,-0.49096 0.59939,-1.13393 1.13393,-1.13393 0.601357,0 1.089245,0.70394 1.27567,1.27567 0.316259,0.96991 -0.08873,2.07857 -0.472472,3.02381 -0.174234,0.42917 -0.346049,1.05935 -0.803198,1.13393 -0.500542,0.0817 -1.005104,-0.44236 -1.228424,-0.8977 -0.4995,-1.01847 -0.354118,-2.35989 0.09449,-3.40178 z"
       id="path3778"
       inkscape:connector-curvature="0"
       sodipodi:nodetypes="aaaaaaa" />
  </g>
</svg>
