<?xml version="1.0" encoding="UTF-8" standalone="no"?>
<!-- Created with Inkscape (http://www.inkscape.org/) -->

<svg
   xmlns:dc="http://purl.org/dc/elements/1.1/"
   xmlns:cc="http://creativecommons.org/ns#"
   xmlns:rdf="http://www.w3.org/1999/02/22-rdf-syntax-ns#"
   xmlns:svg="http://www.w3.org/2000/svg"
   xmlns="http://www.w3.org/2000/svg"
   xmlns:sodipodi="http://sodipodi.sourceforge.net/DTD/sodipodi-0.dtd"
   xmlns:inkscape="http://www.inkscape.org/namespaces/inkscape"
   width="200"
   height="200"
   viewBox="0 0 200 200"
   version="1.1"
   id="svg8"
   inkscape:version="0.92.3 (2405546, 2018-03-11)"
   sodipodi:docname="mouse.svg">
  <defs
     id="defs2" />
  <sodipodi:namedview
     id="base"
     pagecolor="#ffffff"
     bordercolor="#666666"
     borderopacity="1.0"
     inkscape:pageopacity="0.0"
     inkscape:pageshadow="2"
     inkscape:zoom="5.6"
     inkscape:cx="81.389826"
     inkscape:cy="105.17754"
     inkscape:document-units="px"
     inkscape:current-layer="layer1"
     showgrid="false"
     units="px"
     inkscape:window-width="3066"
     inkscape:window-height="1689"
     inkscape:window-x="134"
     inkscape:window-y="55"
     inkscape:window-maximized="1" />
  <metadata
     id="metadata5">
    <rdf:RDF>
      <cc:Work
         rdf:about="">
        <dc:format>image/svg+xml</dc:format>
        <dc:type
           rdf:resource="http://purl.org/dc/dcmitype/StillImage" />
        <dc:title></dc:title>
      </cc:Work>
    </rdf:RDF>
  </metadata>
  <g
     inkscape:label="Layer 1"
     inkscape:groupmode="layer"
     id="layer1"
     transform="translate(0,-244.08332)">
    <path
       style="fill:#bec8b7;stroke:#bec8b7;stroke-width:1px;stroke-linecap:butt;stroke-linejoin:miter;stroke-opacity:1"
       d="m 89.464286,372.11903 -3.928572,23.92858 -16.785714,1.78571 13.571429,5.17857 8.928571,-3.21428 4.285714,4.64285 5.535716,-0.89285 -8.214287,-8.57143 0.714286,-23.03572 c -1.369332,0.0621 -2.736129,0.17857 -4.107143,0.17857 z"
       id="path829"
       inkscape:connector-curvature="0"
       sodipodi:nodetypes="cccccccccc" />
    <path
       style="fill:#bec8b7;stroke:#bec8b7;stroke-width:1px;stroke-linecap:butt;stroke-linejoin:miter;stroke-opacity:1"
       d="m 145.71429,378.36904 3.75,18.74999 -8.92858,5 -0.89285,3.57143 8.21428,-3.21428 -4.64285,6.60714 9.10714,-3.92857 1.42857,4.10714 4.46429,-10.17857 -3.39286,-6.60714 -3.75,-15.35715 c -1.31709,0.88683 -3.67672,2.09022 -5.35714,1.25001 z"
       id="path831"
       inkscape:connector-curvature="0"
       sodipodi:nodetypes="cccccccccccc" />
    <path
       style="fill:#6f918a;stroke:#6f918a;stroke-width:1px;stroke-linecap:butt;stroke-linejoin:miter;stroke-opacity:1"
       d="m 56.785714,319.7976 c -10.10285,-3.85089 -20.707473,-10.32606 -25.535714,-20 -4.094314,-8.20343 -4.352836,-19.16398 -0.535714,-27.5 2.833483,-6.1879 9.279893,-10.81821 15.714286,-13.03571 9.795993,-3.37602 21.871407,-3.87354 31.071428,0.89286 10.306114,5.33945 19.4654,16.33811 20.892857,27.85714 1.325539,10.69659 -5.137008,21.94993 -12.5,29.82143 -1.727543,1.84685 -4.30717,2.89078 -6.785714,3.39286 -7.307278,1.48025 -15.354672,1.22693 -22.321429,-1.42858 z"
       id="path825"
       inkscape:connector-curvature="0"
       sodipodi:nodetypes="aaaaaaaaa" />
    <path
       style="fill:#93ac93;stroke:#93ac93;stroke-width:1px;stroke-linecap:butt;stroke-linejoin:miter;stroke-opacity:1"
       d="m 167.85714,344.79761 18.03572,1.07142 -3.39286,20.35715 -8.57143,21.60714 10.89286,7.5 0.35714,8.92857 4.28572,-1.96428 -2.32143,-3.57143 4.64285,1.25 -3.03571,-4.10715 4.64286,0.71429 -0.17857,-4.10714 H 186.25 l -9.10714,-6.07143 8.21428,-19.46429 3.21429,-22.5 -19.82143,-2.5 z"
       id="path823"
       inkscape:connector-curvature="0" />
    <path
       style="fill:#6f8a91;stroke:#6f8a91;stroke-width:1px;stroke-linecap:butt;stroke-linejoin:miter;stroke-opacity:1"
       d="m 11.25,353.72618 c -3.9364942,8.72799 16.971865,8.46374 24.285715,14.64285 5.759492,4.86591 14.285714,1.96429 15.535714,1.78572 1.25,-0.17857 6.428572,-1.07143 6.428572,-1.07143 0,0 11.314755,1.89817 9.464285,4.46429 -4.41622,6.12415 -17.5,2.85715 -17.5,2.85715 0,0 14.428174,7.70634 22.500001,6.42856 3.461948,-0.54804 8.379111,-5.03935 11.938884,-7.36039 2.905306,-1.89431 6.811115,2.18182 6.811115,2.18182 0,0 5.287815,6.18875 6.25,10 1.138808,4.51085 1.885041,10.19655 -0.892857,13.92857 -3.373601,4.53233 -11.071428,8.39286 -11.071428,8.39286 l 5.17857,2.32142 c 0,0 3.963003,-1.49634 9.285715,0.17858 2.288834,0.72024 2.685954,5.81315 5.000004,5.17857 2.24172,-0.61475 -0.3183,-5.48345 1.60714,-6.78572 2.99142,-2.02324 8.03905,4.0331 10.71428,1.60715 1.72192,-1.56147 0.8726,-4.99174 -0.35714,-6.96429 -1.62107,-2.60025 -6.53283,-1.79398 -8.03571,-4.46428 -2.27886,-4.04905 -1.27117,-9.64802 0.53571,-13.92858 1.30986,-3.1031 6.96429,-7.32142 6.96429,-7.32142 0,0 5.84164,4.03774 9.10714,5.35714 6.13073,2.47706 12.86673,6.22978 19.28571,4.64286 5.07712,-1.25518 11.78572,-10.35715 11.78572,-10.35715 0,0 2.1733,8.81334 1.60714,13.21429 -0.39207,3.04772 -1.36598,6.26187 -3.39286,8.57143 -2.4254,2.76366 -8.08714,2.02545 -9.64285,5.35714 -0.66678,1.42797 -0.49303,3.89249 0.89285,4.64286 2.4884,1.34731 5.27456,-4.37085 7.85715,-3.21429 2.76631,1.23884 0.0288,8.19005 3.03571,8.57143 3.4885,0.44245 2.42871,-8.14581 5.89286,-8.75 2.18148,-0.38048 3.40186,4.96804 5.35714,3.92857 2.68254,-1.42609 0.17433,-6.11594 -0.35714,-9.10714 -0.71129,-4.00326 -3.08642,-7.5957 -3.75,-11.60714 -0.63152,-3.81763 -0.78607,-7.78563 -0.17857,-11.60715 0.66198,-4.16425 2.66883,-8.00064 4.10714,-11.96428 1.76097,-4.85284 5.47623,-9.30216 5.53571,-14.46429 0.0837,-7.26678 -3.11707,-14.60809 -7.32142,-20.53571 -3.45276,-4.86797 -8.42568,-8.93987 -13.92858,-11.25 -10.0006,-4.19827 -21.55413,-5.05498 -32.32142,-3.75 -10.15289,1.23052 -20.585142,4.55551 -28.750004,10.71428 -1.121531,0.84597 -2.5,3.39286 -2.5,3.39286 0,0 -2.248098,-8.30808 -4.642857,-11.78571 -1.051423,-1.52686 -4.107143,-3.75 -4.107143,-3.75 0,0 14.768292,-0.11348 19.821428,-4.64286 5.593446,-5.01368 7.727146,-13.74187 7.499996,-21.25 -0.27748,-9.17174 -3.76429,-19.36586 -10.714281,-25.35714 -6.331246,-5.45788 -14.514144,-9.75449 -22.857144,-10.35714 -8.342576,-0.60262 -17.414245,1.94762 -24.107142,6.96428 -6.48774,4.86288 -12.239813,12.46695 -13.035714,20.53572 -0.939698,9.52655 3.996509,19.63164 10.357143,26.78571 3.131495,3.52212 12.5,6.60714 12.5,6.60714 0,0 -6.440097,5.16442 -8.214286,8.75 -1.92689,3.89418 0.202731,9.19985 -2.142857,12.85714 -1.203216,1.87608 -3.34267,3.35256 -5.535715,3.75 -5.241913,0.94997 -11.846578,6.0331 -17.142857,6.60715 -2.434912,0.26391 -13.63591,4.19597 -14.642857,6.42857 z"
       id="path817"
       inkscape:connector-curvature="0"
       sodipodi:nodetypes="ssscscsscssccssssssscsscssssssssssssssssscscassaaaacsssss" />
    <path
       style="fill:#fff6d5;stroke:#000000;stroke-width:1px;stroke-linecap:butt;stroke-linejoin:miter;stroke-opacity:1"
       d="m 62.5,333.5476 c -2.405133,2.26843 -4.841021,5.92944 -3.928571,9.10715 0.838465,2.92005 4.4776,4.87062 7.5,5.17857 4.245508,0.43257 9.535518,-1.37397 11.785714,-5 1.603463,-2.58386 0.903552,-6.42834 -0.535714,-9.10714 -0.986028,-1.83522 -2.939247,-3.4441 -5,-3.75 -3.445784,-0.5115 -7.287226,1.18126 -9.821429,3.57142 z"
       id="path819"
       inkscape:connector-curvature="0"
       sodipodi:nodetypes="aaaaaaa" />
    <ellipse
       style="opacity:1;fill:#000000;fill-opacity:1;stroke:#000000;stroke-width:1.00157475;stroke-linejoin:round;stroke-miterlimit:4;stroke-dasharray:none;stroke-dashoffset:0;stroke-opacity:1"
       id="path821"
       cx="69.285713"
       cy="340.86902"
       rx="3.2142856"
       ry="4.4642859" />
    <path
       style="fill:#aa0000;stroke:#aa0000;stroke-width:1px;stroke-linecap:butt;stroke-linejoin:miter;stroke-opacity:1"
       d="m 13.928572,366.40474 c -4.3422893,-1.03823 -9.4357559,-4.65915 -9.8214291,-9.10714 -0.6201212,-7.1519 5.8574608,-17.22564 13.0357141,-17.14286 5.071776,0.0585 7.566078,7.43574 8.928572,12.32143 0.962699,3.45209 1.382338,7.94532 -0.892857,10.71429 -2.475966,3.01331 -7.456856,4.12121 -11.25,3.21428 z"
       id="path815"
       inkscape:connector-curvature="0"
       sodipodi:nodetypes="aaaaaa" />
    <path
       style="fill:#ffd5e5;stroke:#ffd5e5;stroke-width:1px;stroke-linecap:butt;stroke-linejoin:miter;stroke-opacity:1"
       d="m 65.357143,312.2976 c -6.77824,-2.26551 -15.094738,-4.47011 -18.571429,-10.71428 -4.606335,-8.27303 -4.478633,-20.59489 0.892858,-28.39286 4.903904,-7.11916 15.288355,-10.27819 23.928571,-10 7.769017,0.25014 15.375062,4.88228 20.892857,10.35714 4.308433,4.27491 7.84838,10.19165 8.21429,16.25 0.44271,7.33006 -1.817406,16.06307 -7.500004,20.71429 -4.983394,4.07892 -12.667852,2.77152 -19.107143,2.85714 -2.938192,0.0391 -5.963094,-0.13995 -8.75,-1.07143 z"
       id="path827"
       inkscape:connector-curvature="0"
       sodipodi:nodetypes="aaaaaaaaa" />
  </g>
</svg>
