<?xml version="1.0" encoding="UTF-8" standalone="no"?>
<!-- Created with Inkscape (http://www.inkscape.org/) -->

<svg
   xmlns:dc="http://purl.org/dc/elements/1.1/"
   xmlns:cc="http://creativecommons.org/ns#"
   xmlns:rdf="http://www.w3.org/1999/02/22-rdf-syntax-ns#"
   xmlns:svg="http://www.w3.org/2000/svg"
   xmlns="http://www.w3.org/2000/svg"
   xmlns:sodipodi="http://sodipodi.sourceforge.net/DTD/sodipodi-0.dtd"
   xmlns:inkscape="http://www.inkscape.org/namespaces/inkscape"
   width="200"
   height="200"
   viewBox="0 0 200 200"
   version="1.1"
   id="svg1430"
   inkscape:version="0.92.3 (2405546, 2018-03-11)"
   sodipodi:docname="pirate.svg">
  <defs
     id="defs1424" />
  <sodipodi:namedview
     id="base"
     pagecolor="#ffffff"
     bordercolor="#666666"
     borderopacity="1.0"
     inkscape:pageopacity="0.0"
     inkscape:pageshadow="2"
     inkscape:zoom="5.6"
     inkscape:cx="42.172073"
     inkscape:cy="95.714285"
     inkscape:document-units="px"
     inkscape:current-layer="layer1"
     showgrid="false"
     units="px"
     inkscape:window-width="3066"
     inkscape:window-height="1689"
     inkscape:window-x="134"
     inkscape:window-y="55"
     inkscape:window-maximized="1" />
  <metadata
     id="metadata1427">
    <rdf:RDF>
      <cc:Work
         rdf:about="">
        <dc:format>image/svg+xml</dc:format>
        <dc:type
           rdf:resource="http://purl.org/dc/dcmitype/StillImage" />
        <dc:title></dc:title>
      </cc:Work>
    </rdf:RDF>
  </metadata>
  <g
     inkscape:label="Layer 1"
     inkscape:groupmode="layer"
     id="layer1"
     transform="translate(0,-244.08332)">
    <path
       style="fill:#999999;stroke:#999999;stroke-width:1px;stroke-linecap:butt;stroke-linejoin:miter;stroke-opacity:1"
       d="m 56.25,367.72618 c 0,0 -10.372335,0.22225 -15.535714,-0.17857 -5.396505,-0.41892 -11.655701,0.80892 -16.071429,-2.32143 C 17.084374,359.8679 13.95238,349.59151 11.785714,340.58332 8.6257947,327.44556 7.9625228,312.89714 12.142857,300.0476 c 4.593905,-14.12077 13.962975,-27.40815 25.892857,-36.25 13.625409,-10.09848 31.294374,-15.08911 48.214286,-16.25 18.73955,-1.28573 38.06098,3.20996 55.35714,10.53572 12.66697,5.36507 24.99404,13.14013 33.75,23.75 6.5628,7.95235 10.97168,18.04586 12.67857,28.21428 1.8699,11.13957 -1.33191,22.58383 -3.03571,33.75001 -1.23098,8.06747 -5.17857,23.92857 -5.17857,23.92857 0,0 -22.24139,2.37313 -33.39286,2.14285 -6.22368,-0.12852 -18.57143,-1.96428 -18.57143,-1.96428 L 126.25,394.33332 c 0,0 -7.57134,2.02174 -11.42857,2.67857 -5.48862,0.93463 -11.04319,1.58353 -16.607144,1.78572 -8.630386,0.31362 -17.563817,1.38946 -25.892857,-0.89286 -4.187603,-1.14749 -11.428572,-6.25 -11.428572,-6.25 z"
       id="path1975"
       inkscape:connector-curvature="0"
       sodipodi:nodetypes="caaaaaaaaaacaccaaacc" />
    <path
       style="fill:#ffffff;stroke:#ffffff;stroke-width:1px;stroke-linecap:butt;stroke-linejoin:miter;stroke-opacity:1"
       d="m 52.678572,305.58332 c -5.178145,3.06836 -11.282472,6.86923 -12.857143,12.67857 -1.67721,6.18763 1.287119,13.34512 5,18.57143 3.671683,5.16832 9.604486,9.02222 15.714285,10.71429 4.941685,1.36857 10.925907,1.68733 15.357143,-0.89286 6.24938,-3.63885 11.638936,-10.98419 11.785715,-18.21429 0.154364,-7.60375 -5.849396,-14.67404 -11.607143,-19.64286 -3.941455,-3.4014 -9.264004,-5.64456 -14.464286,-5.89285 -3.103698,-0.14819 -6.255406,1.09456 -8.928571,2.67857 z"
       id="path1977"
       inkscape:connector-curvature="0"
       sodipodi:nodetypes="aaaaaaaaa" />
    <path
       style="fill:#ffffff;stroke:#ffffff;stroke-width:1px;stroke-linecap:butt;stroke-linejoin:miter;stroke-opacity:1"
       d="m 123.92857,308.44046 c -6.38818,2.97745 -13.3761,6.68879 -16.78571,12.85714 -2.48714,4.49951 -2.28892,10.2885 -1.42857,15.35715 1.02966,6.06611 2.72981,13.12954 7.67857,16.78571 3.66987,2.71132 9.02258,2.14229 13.57143,1.78572 8.16785,-0.64025 17.92232,-1.03038 23.57142,-6.96429 4.3501,-4.56942 5.38715,-12.15176 4.46429,-18.39286 -0.85865,-5.80682 -4.74904,-11.05691 -8.92857,-15.17857 -3.85327,-3.79992 -8.75579,-7.22936 -14.10714,-8.03571 -2.71328,-0.40884 -5.54868,0.62653 -8.03572,1.78571 z"
       id="path1979"
       inkscape:connector-curvature="0"
       sodipodi:nodetypes="aaaaaaaaaa" />
    <path
       style="fill:#ffffff;stroke:#ffffff;stroke-width:1px;stroke-linecap:butt;stroke-linejoin:miter;stroke-opacity:1"
       d="m 90.535714,355.58332 -9.642857,11.78571 5.714286,4.82143 5.178571,-1.78571 3.571429,2.67857 6.071427,-2.32143 c 0,0 0.0631,-3.54973 -0.53571,-5.17857 -1.27033,-3.45573 -6.250003,-9.10714 -6.250003,-9.10714 z"
       id="path1981"
       inkscape:connector-curvature="0"
       sodipodi:nodetypes="ccccccacc" />
    <path
       style="fill:#cccccc;stroke:#cccccc;stroke-width:1px;stroke-linecap:butt;stroke-linejoin:miter;stroke-opacity:1"
       d="m 37.142817,390.31414 c 0,0 1.834632,-4.70747 0.587533,-6.66876 -1.681028,-2.64371 -5.758735,-4.99359 -9.411885,-4.5672 -3.22555,0.37649 -6.076109,3.20368 -6.802664,5.79659 -0.634757,2.26532 2.689579,6.54721 2.689579,6.54721 0,0 -8.29051,3.70117 -8.971803,7.0104 -0.350702,1.70345 1.252364,3.52333 2.942432,4.53149 2.107365,1.25708 5.216254,1.79375 7.747715,1.15994 2.728413,-0.68314 6.165375,-4.88464 6.165375,-4.88464 l 123.812311,33.85724 c 0,0 -1.93497,2.67995 -1.61221,4.11844 0.49242,2.19464 2.75404,3.9838 4.90838,4.63013 4.27513,1.2826 10.30292,1.09536 13.18959,-2.30889 1.63959,-1.93358 0.0694,-7.60513 0.0694,-7.60513 l 5.1912,-1.08851 c 0,0 2.94037,-2.36803 3.52776,-3.90616 0.89046,-2.33177 1.50927,-5.38001 -0.30698,-7.27883 -2.10554,-2.20122 -6.46867,-2.21302 -9.91981,-2.30463 -2.90099,-0.077 -6.32187,-0.0605 -8.55308,1.4889 -2.08433,1.44742 -2.97156,6.22116 -2.97156,6.22116 z"
       id="path1983"
       inkscape:connector-curvature="0"
       sodipodi:nodetypes="caaacaaaccaaaccaaaacc" />
    <path
       style="fill:#b3b3b3;stroke:#b3b3b3;stroke-width:1px;stroke-linecap:butt;stroke-linejoin:miter;stroke-opacity:1"
       d="m 164.00437,395.44858 c 0,0 -0.87822,-6.07136 0.78099,-8.30092 2.23654,-3.00533 6.82554,-5.29135 10.41571,-4.2214 3.16995,0.9447 5.45798,4.85179 5.65582,8.15359 0.17281,2.88465 -4.05531,7.66251 -4.05531,7.66251 0,0 7.58501,5.79474 7.58986,9.97201 0.002,2.15029 -1.986,4.15259 -3.89503,5.14222 -2.38038,1.23397 -5.62081,1.43131 -8.039,0.27317 -2.60632,-1.24824 -5.2019,-6.9354 -5.2019,-6.9354 L 35.635029,430.42913 c 0,0 1.442626,3.65204 0.775525,5.31274 -1.125451,2.80174 -4.130311,5.40242 -7.145142,5.56725 -4.024287,0.22003 -8.37544,-2.80118 -10.290897,-6.34721 -1.337113,-2.47536 0.232932,-8.43701 0.232932,-8.43701 l -5.002385,-2.11479 c 0,0 -2.472958,-3.35498 -2.747765,-5.33694 -0.416601,-3.00463 -0.412251,-6.85114 1.807172,-8.91889 2.572855,-2.39703 6.968011,-1.7609 10.461413,-1.35905 2.936516,0.33779 6.377227,0.86825 8.304684,3.10926 1.800574,2.09348 1.711344,8.10518 1.711344,8.10518 z"
       id="path1983-3"
       inkscape:connector-curvature="0"
       sodipodi:nodetypes="caaacaaaccaaaccaaaacc" />
  </g>
</svg>
