<?xml version="1.0" encoding="UTF-8" standalone="no"?>
<!-- Created with Inkscape (http://www.inkscape.org/) -->

<svg
   xmlns:dc="http://purl.org/dc/elements/1.1/"
   xmlns:cc="http://creativecommons.org/ns#"
   xmlns:rdf="http://www.w3.org/1999/02/22-rdf-syntax-ns#"
   xmlns:svg="http://www.w3.org/2000/svg"
   xmlns="http://www.w3.org/2000/svg"
   xmlns:sodipodi="http://sodipodi.sourceforge.net/DTD/sodipodi-0.dtd"
   xmlns:inkscape="http://www.inkscape.org/namespaces/inkscape"
   width="600"
   height="300"
   viewBox="0 0 158.75 79.375002"
   version="1.1"
   id="svg8"
   inkscape:version="0.92.3 (2405546, 2018-03-11)"
   sodipodi:docname="rouleau_header_title.svg">
  <defs
     id="defs2" />
  <sodipodi:namedview
     id="base"
     pagecolor="#ffffff"
     bordercolor="#666666"
     borderopacity="1.0"
     inkscape:pageopacity="0.0"
     inkscape:pageshadow="2"
     inkscape:zoom="1.979899"
     inkscape:cx="209.91496"
     inkscape:cy="236.75119"
     inkscape:document-units="mm"
     inkscape:current-layer="layer1"
     showgrid="false"
     units="px"
     inkscape:window-width="3066"
     inkscape:window-height="1689"
     inkscape:window-x="134"
     inkscape:window-y="55"
     inkscape:window-maximized="1" />
  <metadata
     id="metadata5">
    <rdf:RDF>
      <cc:Work
         rdf:about="">
        <dc:format>image/svg+xml</dc:format>
        <dc:type
           rdf:resource="http://purl.org/dc/dcmitype/StillImage" />
        <dc:title></dc:title>
      </cc:Work>
    </rdf:RDF>
  </metadata>
  <g
     inkscape:label="Layer 1"
     inkscape:groupmode="layer"
     id="layer1"
     transform="translate(0,-217.62498)">
    <ellipse
       style="opacity:1;fill:#808080;fill-opacity:1;stroke:#808080;stroke-width:0.26499999;stroke-miterlimit:4;stroke-dasharray:none;stroke-dashoffset:0;stroke-opacity:1"
       id="path815"
       cx="8.0166597"
       cy="241.49141"
       rx="6.2820129"
       ry="9.2242241" />
    <ellipse
       style="opacity:1;fill:#808080;fill-opacity:1;stroke:#808080;stroke-width:0.26499999;stroke-miterlimit:4;stroke-dasharray:none;stroke-dashoffset:0;stroke-opacity:1"
       id="path815-6"
       cx="151.14233"
       cy="241.0905"
       rx="5.6138391"
       ry="9.2242241" />
    <ellipse
       style="opacity:1;fill:#808080;fill-opacity:1;stroke:#808080;stroke-width:0.26499999;stroke-miterlimit:4;stroke-dasharray:none;stroke-dashoffset:0;stroke-opacity:1"
       id="path815-3"
       cx="13.428202"
       cy="277.1525"
       rx="5.8593402"
       ry="8.5420589" />
    <ellipse
       style="opacity:1;fill:#808080;fill-opacity:1;stroke:#808080;stroke-width:0.26499999;stroke-miterlimit:4;stroke-dasharray:none;stroke-dashoffset:0;stroke-opacity:1"
       id="path815-6-5"
       cx="146.53261"
       cy="276.75159"
       rx="5.0575314"
       ry="8.5420589" />
    <path
       style="fill:#ffeeaa;stroke:#ffeeaa;stroke-width:0.26458332px;stroke-linecap:butt;stroke-linejoin:miter;stroke-opacity:1"
       d="m 11.223919,246.09795 c 0,0 9.133442,4.3257 11.690605,6.82607 3.27311,3.20044 5.397191,6.71357 4.294517,10.09336 -1.146629,3.51452 -11.108108,9.86414 -11.108108,9.86414 H 142.38998 c 0,0 -10.79943,-6.27246 -12.11271,-9.80804 -1.28806,-3.46768 0.86563,-7.11321 4.45358,-10.37374 2.71681,-2.46891 12.53617,-6.60179 12.53617,-6.60179 z"
       id="path906"
       inkscape:connector-curvature="0"
       sodipodi:nodetypes="cssccsscc" />
    <ellipse
       style="opacity:1;fill:#ffdd55;fill-opacity:1;stroke:#ffdd55;stroke-width:0.26499999;stroke-miterlimit:4;stroke-dasharray:none;stroke-dashoffset:0;stroke-opacity:1"
       id="path815-7"
       cx="11.223894"
       cy="241.62505"
       rx="5.7260113"
       ry="4.4728255" />
    <ellipse
       style="opacity:1;fill:#ffdd55;fill-opacity:1;stroke:#ffdd55;stroke-width:0.26499999;stroke-miterlimit:4;stroke-dasharray:none;stroke-dashoffset:0;stroke-opacity:1"
       id="path815-7-5"
       cx="147.26692"
       cy="241.62505"
       rx="5.7260113"
       ry="4.4728255" />
    <rect
       style="opacity:1;fill:#ffdd55;fill-opacity:1;stroke:#ffdd55;stroke-width:0.26499999;stroke-miterlimit:4;stroke-dasharray:none;stroke-dashoffset:0;stroke-opacity:1"
       id="rect877"
       width="136.04306"
       height="8.9456511"
       x="11.223894"
       y="237.15225" />
    <ellipse
       style="opacity:1;fill:#ffdd55;fill-opacity:1;stroke:#ffdd55;stroke-width:0.26499999;stroke-miterlimit:4;stroke-dasharray:none;stroke-dashoffset:0;stroke-opacity:1"
       id="path815-7-6"
       cx="16.100897"
       cy="277.1525"
       rx="5.3154678"
       ry="4.2709613" />
    <ellipse
       style="opacity:1;fill:#ffdd55;fill-opacity:1;stroke:#ffdd55;stroke-width:0.26499999;stroke-miterlimit:4;stroke-dasharray:none;stroke-dashoffset:0;stroke-opacity:1"
       id="path815-7-5-2"
       cx="142.38992"
       cy="277.1525"
       rx="5.3154678"
       ry="4.2709613" />
    <rect
       style="opacity:1;fill:#ffdd55;fill-opacity:1;stroke:#ffdd55;stroke-width:0.26499999;stroke-miterlimit:4;stroke-dasharray:none;stroke-dashoffset:0;stroke-opacity:1"
       id="rect877-9"
       width="126.28902"
       height="8.5419226"
       x="16.100897"
       y="272.88153" />
    <path
       style="fill:#ff0000;stroke:#c8beb7;stroke-width:0.26458332px;stroke-linecap:butt;stroke-linejoin:miter;stroke-opacity:1"
       d="m 29.666918,249.89417 5.947007,7.91435 -5.414439,12.64575 h 4.615587 l 3.017885,-8.60256 2.574078,-0.086 2.396555,3.26897 -1.242658,5.41961 4.260542,0.086 0.266284,-5.76371 -2.574077,-4.30127 -0.887614,-2.66679 4.08302,-2.6668 -0.532567,-5.33358 -4.08302,-1.37641 -8.343563,-0.086 z"
       id="path1544"
       inkscape:connector-curvature="0" />
    <path
       style="fill:#ffeeaa;fill-opacity:1;stroke:#c8beb7;stroke-width:0.26458332px;stroke-linecap:butt;stroke-linejoin:miter;stroke-opacity:1"
       d="m 33.039848,251.3566 4.17178,5.24756 3.639214,0.086 3.550452,-1.89256 -0.798852,-4.0432 -4.704349,-0.86025 h -3.994258 z"
       id="path1546"
       inkscape:connector-curvature="0" />
    <path
       style="fill:#ff0000;stroke:#c8beb7;stroke-width:0.26458332px;stroke-linecap:butt;stroke-linejoin:miter;stroke-opacity:1"
       d="m 49.993255,252.99108 v 3.61308 l 1.242659,3.01089 0.443806,3.09692 -1.775224,2.49474 -0.976376,2.75282 4.260543,2.06461 6.657099,0.17205 0.71009,-5.59166 -2.396555,-2.58077 0.266283,-4.98947 1.065137,-3.0109 -0.621331,-4.12922 -3.905496,-1.46244 -4.526826,0.60218 z"
       id="path1548"
       inkscape:connector-curvature="0" />
    <path
       style="fill:#ffeeaa;fill-opacity:1;stroke:#c8beb7;stroke-width:0.26458332px;stroke-linecap:butt;stroke-linejoin:miter;stroke-opacity:1"
       d="m 53.188663,250.49634 -1.686464,3.78513 0.355046,2.83884 1.331418,3.44102 -0.532568,4.21525 -1.420181,1.89256 2.396555,1.46244 h 4.083021 l 1.42018,-2.15064 -2.929122,-4.30128 0.355045,-4.98948 1.065136,-3.01089 -1.686464,-3.26897 z"
       id="path1550"
       inkscape:connector-curvature="0"
       sodipodi:nodetypes="cccccccccccccc" />
    <path
       style="fill:#ff0000;stroke:#c8beb7;stroke-width:0.26458332px;stroke-linecap:butt;stroke-linejoin:miter;stroke-opacity:1"
       d="m 61.887273,254.28147 0.976372,4.98948 0.266284,5.41961 -1.420181,4.64538 4.615589,1.20435 6.834619,-0.86025 -1.153897,-5.93576 c 0,0 -2.041508,-6.79602 -1.775224,-5.93576 0.266282,0.86025 0.621328,-8.86063 0.621328,-8.86063 h -2.130272 l -1.153896,8.34447 0.976375,6.70999 0.798851,3.6991 -2.396556,0.68821 -3.195406,-0.60219 2.130271,-3.95717 -1.508943,-6.88204 -0.976374,-7.3982 h -2.396555 c 0,0 0.801167,3.62128 0.887615,4.73141 z"
       id="path1552"
       inkscape:connector-curvature="0"
       sodipodi:nodetypes="cccccccccccccccccccc" />
    <path
       style="fill:#ff0000;stroke:#c8beb7;stroke-width:0.26458332px;stroke-linecap:butt;stroke-linejoin:miter;stroke-opacity:1"
       d="m 75.112705,249.37801 1.242659,8.51653 0.266285,4.30128 -1.508944,7.22614 4.704351,0.77423 8.077276,-0.3441 -1.153896,-3.87115 -9.319937,0.86025 1.597707,-6.79601 -0.798854,-4.81743 -0.710091,-6.19384 -2.574077,0.086"
       id="path1554"
       inkscape:connector-curvature="0" />
    <path
       style="fill:#ff0000;stroke:#c8beb7;stroke-width:0.26458332px;stroke-linecap:butt;stroke-linejoin:miter;stroke-opacity:1"
       d="m 89.492039,249.72212 0.621327,5.76371 -1.508942,4.12922 0.266281,5.50563 0.798856,4.98948 10.296311,-0.086 -0.266281,-4.21525 -6.12453,0.60217 -1.065139,-3.78511 -0.08876,-2.15064 3.550453,-0.17205 v -2.15064 l -3.905493,-0.43013 v -6.02179 l 5.769487,0.34411 -0.08876,-3.18295 z"
       id="path1556"
       inkscape:connector-curvature="0" />
    <path
       style="fill:#ff0000;stroke:#c8beb7;stroke-width:0.26458332px;stroke-linecap:butt;stroke-linejoin:miter;stroke-opacity:1"
       d="m 102.895,270.19619 2.92912,-0.086 0.44381,-6.36588 3.90549,0.17205 1.68647,6.53794 2.84036,-0.43013 -2.04151,-7.0541 -1.33142,-3.35499 -0.17753,-9.89293 -3.28416,-1.63449 -4.70435,0.51615 -0.62133,7.57025 0.71009,6.96806 z"
       id="path1558"
       inkscape:connector-curvature="0" />
    <path
       style="fill:#ffeeaa;fill-opacity:1;stroke:#c8beb7;stroke-width:0.26458332px;stroke-linecap:butt;stroke-linejoin:miter;stroke-opacity:1"
       d="m 106.53421,260.64736 3.10665,0.25807 -0.97638,-3.01089 0.53256,-3.44102 -0.4438,-3.26897 -3.28416,-0.25808 -1.59771,2.49474 0.62133,3.52705 z"
       id="path1560"
       inkscape:connector-curvature="0" />
    <path
       style="fill:#ff0000;stroke:#c8beb7;stroke-width:0.26458332px;stroke-linecap:butt;stroke-linejoin:miter;stroke-opacity:1"
       d="m 115.4991,249.20596 0.44381,6.45192 0.53256,14.79639 8.60985,-0.25808 0.53257,-5.84974 -2.7516,-5.50563 0.97637,-6.62396 0.79885,-4.12923 h -3.99426 l 0.17753,9.37678 2.04151,6.45192 -0.71009,4.3873 -4.26055,0.086 -0.62132,-19.35575 z"
       id="path1562"
       inkscape:connector-curvature="0" />
  </g>
</svg>
