<?xml version="1.0" encoding="UTF-8" standalone="no"?>
<!-- Created with Inkscape (http://www.inkscape.org/) -->

<svg
   xmlns:dc="http://purl.org/dc/elements/1.1/"
   xmlns:cc="http://creativecommons.org/ns#"
   xmlns:rdf="http://www.w3.org/1999/02/22-rdf-syntax-ns#"
   xmlns:svg="http://www.w3.org/2000/svg"
   xmlns="http://www.w3.org/2000/svg"
   xmlns:sodipodi="http://sodipodi.sourceforge.net/DTD/sodipodi-0.dtd"
   xmlns:inkscape="http://www.inkscape.org/namespaces/inkscape"
   width="200"
   height="200"
   viewBox="0 0 52.916665 52.916668"
   version="1.1"
   id="svg8"
   inkscape:version="0.92.3 (2405546, 2018-03-11)"
   sodipodi:docname="wurm.svg">
  <defs
     id="defs2" />
  <sodipodi:namedview
     id="base"
     pagecolor="#ffffff"
     bordercolor="#666666"
     borderopacity="1.0"
     inkscape:pageopacity="0.0"
     inkscape:pageshadow="2"
     inkscape:zoom="5.6"
     inkscape:cx="175.50649"
     inkscape:cy="88.571428"
     inkscape:document-units="mm"
     inkscape:current-layer="layer1"
     showgrid="false"
     units="px"
     inkscape:window-width="3066"
     inkscape:window-height="1689"
     inkscape:window-x="134"
     inkscape:window-y="55"
     inkscape:window-maximized="1" />
  <metadata
     id="metadata5">
    <rdf:RDF>
      <cc:Work
         rdf:about="">
        <dc:format>image/svg+xml</dc:format>
        <dc:type
           rdf:resource="http://purl.org/dc/dcmitype/StillImage" />
        <dc:title></dc:title>
      </cc:Work>
    </rdf:RDF>
  </metadata>
  <g
     inkscape:label="Layer 1"
     inkscape:groupmode="layer"
     id="layer1"
     transform="translate(0,-244.08332)">
    <path
       style="fill:#ffccaa;stroke:#ff6600;stroke-width:0.26458332px;stroke-linecap:butt;stroke-linejoin:miter;stroke-opacity:1"
       d="m 5.5279017,251.73734 c -0.8602779,0.30627 -1.6692705,1.06413 -1.9371278,1.93713 -0.2446203,0.79727 -0.0716,1.82481 0.4724701,2.45684 0.5556862,0.64553 1.5639542,0.95232 2.4095983,0.85045 1.4571675,-0.17554 2.3470474,-1.80684 3.6852677,-2.4096 2.337487,-1.05285 5.014323,-2.92365 7.417783,-2.03162 1.744509,0.64746 3.293624,2.7777 3.118303,4.63021 -0.263362,2.78278 -3.957158,3.9492 -5.905878,5.95312 -2.593842,2.66732 -5.9186946,4.8135 -7.7012646,8.07924 -1.0248622,1.87759 -2.0041708,4.15494 -1.5119045,6.23661 0.5554778,2.34898 2.6100243,4.28211 4.6774551,5.5279 2.264918,1.36479 5.118001,1.9709 7.748512,1.70089 3.260967,-0.33473 6.442867,-1.93646 8.976935,-4.01599 2.672007,-2.19273 3.782372,-5.80615 6.000372,-8.45722 1.572167,-1.87913 2.810792,-4.51551 5.149924,-5.24442 1.669052,-0.5201 3.953617,-0.2826 5.149927,0.99219 1.618793,1.72499 1.629975,4.79039 0.897694,7.0398 -1.065656,3.27346 -5.244356,4.60442 -7.087055,7.51228 -0.878216,1.38586 -1.838099,2.94282 -1.795386,4.58296 0.02881,1.10621 1.031091,1.97045 1.370163,3.02381 0.221457,0.68798 0.142045,1.46116 0.425223,2.12612 0.345776,0.81195 0.738149,1.74896 1.511906,2.17336 1.368136,0.75042 3.322212,0.96245 4.677455,0.18899 1.242305,-0.709 2.512372,-2.43258 2.031621,-3.77976 -0.595693,-1.66927 -3.534041,-0.91903 -4.913691,-2.03163 -0.775346,-0.62527 -1.717035,-1.46092 -1.700892,-2.45684 0.01843,-1.13695 1.346341,-1.83293 2.031622,-2.74033 1.556683,-2.06125 3.605762,-3.81402 4.724701,-6.14211 0.716471,-1.49071 1.085298,-3.16803 1.181177,-4.8192 0.09569,-1.64787 0.237085,-3.49951 -0.614212,-4.91369 -0.96218,-1.59838 -2.796462,-2.67517 -4.582961,-3.2128 -1.689667,-0.50849 -3.692409,-0.60385 -5.291667,0.14174 -1.506632,0.70241 -2.217331,2.47741 -3.307292,3.73252 -1.274629,1.46776 -2.521686,2.95924 -3.77976,4.44122 -1.656079,1.95081 -2.905327,4.33458 -4.960938,5.85863 -1.722651,1.27719 -3.779709,2.27178 -5.905878,2.55134 -1.499409,0.19715 -3.08247,-0.10444 -4.488467,-0.66146 -1.819657,-0.7209 -4.1020579,-1.5334 -4.8191965,-3.35454 -0.6021193,-1.52906 0.312546,-3.34535 1.0394344,-4.81919 0.9686741,-1.96408 2.6654571,-3.49886 4.2522321,-5.00819 1.969683,-1.87355 4.433698,-3.16324 6.472842,-4.96094 1.445179,-1.27407 3.670534,-2.22434 4.063244,-4.11049 0.36485,-1.75234 -0.950105,-3.515 -1.937128,-5.00818 -0.896656,-1.35648 -1.98733,-2.79591 -3.49628,-3.40179 -1.812306,-0.72768 -3.943643,-0.3359 -5.85863,0.0472 -1.800942,0.36033 -3.284729,1.81756 -5.1026789,2.07887 -0.924482,0.13289 -1.9076894,-0.59673 -2.7875744,-0.28348 z"
       id="path10"
       inkscape:connector-curvature="0"
       sodipodi:nodetypes="aaaaaaaaaaaaaaaaaaaaaaaaaaaaaaaaaaaaaaaaaaaaaaa" />
    <ellipse
       style="opacity:1;fill:#ffccaa;fill-opacity:1;stroke:#ff6600;stroke-width:0.26458332;stroke-linejoin:round;stroke-miterlimit:4;stroke-dasharray:none;stroke-dashoffset:0;stroke-opacity:1"
       id="path12"
       cx="40.325336"
       cy="293.05487"
       rx="0.92131698"
       ry="0.77957588" />
    <ellipse
       style="opacity:1;fill:#ffccaa;fill-opacity:1;stroke:#ff6600;stroke-width:0.26458332;stroke-linejoin:round;stroke-miterlimit:4;stroke-dasharray:none;stroke-dashoffset:0;stroke-opacity:1"
       id="path14"
       cx="42.026226"
       cy="291.42484"
       rx="0.73232883"
       ry="0.8976934" />
    <path
       style="fill:#ffccaa;stroke:#ff6600;stroke-width:0.26458332px;stroke-linecap:butt;stroke-linejoin:miter;stroke-opacity:1"
       d="m 39.026041,293.88168 c 0,0 1.5611,0.52611 2.362351,0.47247 0.531723,-0.0356 1.091562,-0.19214 1.511906,-0.51972 0.682209,-0.53165 1.421778,-1.30847 1.41741,-2.17336 -0.0026,-0.51105 -0.850448,-1.27567 -0.850448,-1.27567"
       id="path16"
       inkscape:connector-curvature="0"
       sodipodi:nodetypes="caaac" />
    <path
       style="fill:#ffccaa;stroke:#ff6600;stroke-width:0.26458332px;stroke-linecap:butt;stroke-linejoin:miter;stroke-opacity:1"
       d="m 10.725074,251.92633 c 0,0 0.570958,0.14839 0.708706,0.37797 0.121543,0.20257 0,0.70871 0,0.70871"
       id="path18"
       inkscape:connector-curvature="0"
       sodipodi:nodetypes="cac" />
    <path
       style="fill:#ffccaa;stroke:#ff6600;stroke-width:0.26458332px;stroke-linecap:butt;stroke-linejoin:miter;stroke-opacity:1"
       d="m 12.898437,250.83964 c 0,0 0.611903,0.21257 0.755953,0.47247 0.11452,0.20662 0,0.70871 0,0.70871"
       id="path20"
       inkscape:connector-curvature="0"
       sodipodi:nodetypes="cac" />
    <path
       style="fill:#ffccaa;stroke:#ff6600;stroke-width:0.26458332px;stroke-linecap:butt;stroke-linejoin:miter;stroke-opacity:1"
       d="m 15.449777,250.36717 c 0,0 0.542569,0.37209 0.566964,0.66146 0.02314,0.27452 -0.425223,0.70871 -0.425223,0.70871"
       id="path22"
       inkscape:connector-curvature="0"
       sodipodi:nodetypes="cac" />
    <path
       style="fill:#ffccaa;stroke:#ff6600;stroke-width:0.26458332px;stroke-linecap:butt;stroke-linejoin:miter;stroke-opacity:1"
       d="m 18.048363,261.65921 c 0,0 -0.0036,0.6331 0.188988,0.85045 0.188295,0.2125 0.803199,0.28348 0.803199,0.28348"
       id="path24"
       inkscape:connector-curvature="0"
       sodipodi:nodetypes="cac" />
    <path
       style="fill:#ffccaa;stroke:#ff6600;stroke-width:0.26458332px;stroke-linecap:butt;stroke-linejoin:miter;stroke-opacity:1"
       d="m 16.34747,262.74589 c 0,0 -0.06062,0.52776 0.09449,0.70871 0.181623,0.21188 0.8032,0.23623 0.8032,0.23623"
       id="path26"
       inkscape:connector-curvature="0"
       sodipodi:nodetypes="cac" />
    <path
       style="fill:#ffccaa;stroke:#ff6600;stroke-width:0.26458332px;stroke-linecap:butt;stroke-linejoin:miter;stroke-opacity:1"
       d="m 14.646577,264.49403 c 0,0 0.001,0.31412 0.09449,0.42523 0.1864,0.22156 0.8032,0.33073 0.8032,0.33073"
       id="path28"
       inkscape:connector-curvature="0"
       sodipodi:nodetypes="cac" />
    <path
       style="fill:#ffccaa;stroke:#ff6600;stroke-width:0.26458332px;stroke-linecap:butt;stroke-linejoin:miter;stroke-opacity:1"
       d="m 12.992931,265.72246 c 0,0 -0.20664,0.56015 -0.04725,0.75595 0.210912,0.25909 0.992187,0.14174 0.992187,0.14174"
       id="path30"
       inkscape:connector-curvature="0"
       sodipodi:nodetypes="cac" />
    <path
       style="fill:#ffccaa;stroke:#ff6600;stroke-width:0.26458332px;stroke-linecap:butt;stroke-linejoin:miter;stroke-opacity:1"
       d="m 11.292039,267.70683 c 0,0 -0.07218,0.41966 0.04725,0.56697 0.103548,0.12772 0.47247,0.14174 0.47247,0.14174"
       id="path32"
       inkscape:connector-curvature="0"
       sodipodi:nodetypes="cac" />
    <path
       style="fill:#ffccaa;stroke:#ff6600;stroke-width:0.26458332px;stroke-linecap:butt;stroke-linejoin:miter;stroke-opacity:1"
       d="m 13.701637,281.12499 c 0,0 0.589623,1.06804 0.377976,1.55915 -0.201008,0.46642 -1.322917,0.75595 -1.322917,0.75595"
       id="path34"
       inkscape:connector-curvature="0"
       sodipodi:nodetypes="cac" />
    <path
       style="fill:#ffccaa;stroke:#ff6600;stroke-width:0.26458332px;stroke-linecap:butt;stroke-linejoin:miter;stroke-opacity:1"
       d="m 15.308036,281.97543 c 0,0 0.249121,0.70665 0.141741,1.03944 -0.133411,0.41347 -0.897694,0.94494 -0.897694,0.94494"
       id="path36"
       inkscape:connector-curvature="0"
       sodipodi:nodetypes="cac" />
  </g>
</svg>
